<?xml version="1.0" standalone="no"?><!DOCTYPE svg PUBLIC "-//W3C//DTD SVG 1.1//EN" "http://www.w3.org/Graphics/SVG/1.1/DTD/svg11.dtd"><svg t="1541827615559" class="icon" style="" viewBox="0 0 1024 1024" version="1.1" xmlns="http://www.w3.org/2000/svg" p-id="2058" xmlns:xlink="http://www.w3.org/1999/xlink" width="200" height="200"><defs><style type="text/css"></style></defs><path d="M221.882016 396.779022h57.52709c0-79.24058 63.145029-143.703626 140.782092-143.703625v-57.52709c-109.352328 0-198.309182 90.278962-198.309182 201.230715z" p-id="2059"></path><path d="M918.349986 793.872199L693.862637 565.171907c23.959643-46.008778 37.695455-98.366135 37.695455-153.955086 0-182.325171-146.035736-330.664364-325.52226-330.664365-179.460943 0-325.496678 148.33817-325.496679 330.664365 0 182.324148 146.035736 330.634688 325.496679 330.634688 61.989719 0 119.770588-18.004013 169.1225-48.678579l220.245753 224.375809c16.404589 16.712603 38.22962 25.898805 61.458624 25.898805h0.028653c23.25868 0 45.055059-9.213831 61.459647-25.898805 33.480465-34.098541 33.480465-89.574929-0.001023-123.67654zM138.094895 411.216821c0-150.613998 120.191166-273.138298 267.940937-273.138298 147.774329 0 267.996195 122.524299 267.996194 273.138298 0 150.583299-120.220842 273.108622-267.996194 273.108622-147.74977 0-267.940936-122.525323-267.940937-273.108622z m739.16022 466.053643c-5.477747 5.590311-12.696135 8.652037-20.363753 8.652037h-0.028653c-7.668641 0-14.913635-3.090379-20.391382-8.652037L621.561082 658.315098c14.72023-13.256905 28.258544-27.750985 40.419491-43.480194l215.274542 219.31864c11.686133 11.879538 11.686133 31.234313 0 43.11692z" p-id="2060"></path></svg>